# ProBuilder 5.0.6
# https://unity3d.com/unity/features/worldbuilding/probuilder
# 15.11.2022 16:13:50

mtllib ./Arch.mtl
o Arch

g Pipe
v -1.5 -1.5 0.5
v -1 -1.5 0.5
v -1.5 -1.5 -0.5
v -1 -1.5 -0.5
v -1.497687 -1.382221 -0.5
v -1.497687 -1.382221 0.5
v -0.9980726 -1.40185 -0.5
v -0.9980726 -1.40185 0.5
v -1.490752 -1.264623 -0.5
v -1.490752 -1.264623 0.5
v -0.9922934 -1.303852 -0.5
v -0.9922934 -1.303852 0.5
v -1.479206 -1.147388 -0.5
v -1.479206 -1.147388 0.5
v -0.9826713 -1.206156 -0.5
v -0.9826713 -1.206156 0.5
v -1.463065 -1.030696 -0.5
v -1.463065 -1.030696 0.5
v -0.9692211 -1.108914 -0.5
v -0.9692211 -1.108914 0.5
v -1.442356 -0.9147289 -0.5
v -1.442356 -0.9147289 0.5
v -0.9519634 -1.012274 -0.5
v -0.9519634 -1.012274 0.5
v -1.41711 -0.7996638 -0.5
v -1.41711 -0.7996638 0.5
v -0.9309249 -0.9163865 -0.5
v -0.9309249 -0.9163865 0.5
v -1.387366 -0.6856786 -0.5
v -1.387366 -0.6856786 0.5
v -0.9061379 -0.8213988 -0.5
v -0.9061379 -0.8213988 0.5
v -1.35317 -0.5729489 -0.5
v -1.35317 -0.5729489 0.5
v -0.8776417 -0.7274575 -0.5
v -0.8776417 -0.7274575 0.5
v -1.314574 -0.4616488 -0.5
v -1.314574 -0.4616488 0.5
v -0.8454785 -0.6347073 -0.5
v -0.8454785 -0.6347073 0.5
v -1.271638 -0.3519496 -0.5
v -1.271638 -0.3519496 0.5
v -0.8096991 -0.5432913 -0.5
v -0.8096991 -0.5432913 0.5
v -1.22443 -0.2440206 -0.5
v -1.22443 -0.2440206 0.5
v -0.7703581 -0.4533506 -0.5
v -0.7703581 -0.4533506 0.5
v -1.17302 -0.1380284 -0.5
v -1.17302 -0.1380284 0.5
v -0.7275167 -0.3650237 -0.5
v -0.7275167 -0.3650237 0.5
v -1.117488 -0.03413635 -0.5
v -1.117488 -0.03413635 0.5
v -0.6812402 -0.278447 -0.5
v -0.6812402 -0.278447 0.5
v -1.05792 0.06749564 -0.5
v -1.05792 0.06749564 0.5
v -0.6316005 -0.1937535 -0.5
v -0.6316005 -0.1937535 0.5
v -0.9944091 0.1667108 -0.5
v -0.9944091 0.1667108 0.5
v -0.5786742 -0.1110744 -0.5
v -0.5786742 -0.1110744 0.5
v -0.9270511 0.2633558 -0.5
v -0.9270511 0.2633558 0.5
v -0.5225426 -0.03053683 -0.5
v -0.5225426 -0.03053683 0.5
v -0.8559508 0.357282 -0.5
v -0.8559508 0.357282 0.5
v -0.4632925 0.04773492 -0.5
v -0.4632925 0.04773492 0.5
v -0.7812181 0.4483442 -0.5
v -0.7812181 0.4483442 0.5
v -0.401015 0.1236201 -0.5
v -0.401015 0.1236201 0.5
v -0.7029675 0.5364023 -0.5
v -0.7029675 0.5364023 0.5
v -0.3358064 0.197002 -0.5
v -0.3358064 0.197002 0.5
v -0.6213204 0.6213203 -0.5
v -0.6213204 0.6213203 0.5
v -0.2677671 0.267767 -0.5
v -0.2677671 0.267767 0.5
v -0.5364023 0.7029675 -0.5
v -0.5364023 0.7029675 0.5
v -0.1970021 0.3358063 -0.5
v -0.1970021 0.3358063 0.5
v -0.4483442 0.7812179 -0.5
v -0.4483442 0.7812179 0.5
v -0.1236202 0.401015 -0.5
v -0.1236202 0.401015 0.5
v -0.357282 0.8559509 -0.5
v -0.357282 0.8559509 0.5
v -0.04773498 0.4632924 -0.5
v -0.04773498 0.4632924 0.5
v -0.2633561 0.9270511 -0.5
v -0.2633561 0.9270511 0.5
v 0.03053665 0.5225425 -0.5
v 0.03053665 0.5225425 0.5
v -0.1667109 0.9944089 -0.5
v -0.1667109 0.9944089 0.5
v 0.1110743 0.5786741 -0.5
v 0.1110743 0.5786741 0.5
v -0.06749594 1.05792 -0.5
v -0.06749594 1.05792 0.5
v 0.1937534 0.6316004 -0.5
v 0.1937534 0.6316004 0.5
v 0.03413594 1.117488 -0.5
v 0.03413594 1.117488 0.5
v 0.2784467 0.6812401 -0.5
v 0.2784467 0.6812401 0.5
v 0.1380283 1.17302 -0.5
v 0.1380283 1.17302 0.5
v 0.3650236 0.7275165 -0.5
v 0.3650236 0.7275165 0.5
v 0.2440206 1.22443 -0.5
v 0.2440206 1.22443 0.5
v 0.4533505 0.7703579 -0.5
v 0.4533505 0.7703579 0.5
v 0.3519496 1.271638 -0.5
v 0.3519496 1.271638 0.5
v 0.5432913 0.8096989 -0.5
v 0.5432913 0.8096989 0.5
v 0.4616487 1.314574 -0.5
v 0.4616487 1.314574 0.5
v 0.6347073 0.8454784 -0.5
v 0.6347073 0.8454784 0.5
v 0.5729489 1.35317 -0.5
v 0.5729489 1.35317 0.5
v 0.7274575 0.8776415 -0.5
v 0.7274575 0.8776415 0.5
v 0.6856784 1.387366 -0.5
v 0.6856784 1.387366 0.5
v 0.8213986 0.906138 -0.5
v 0.8213986 0.906138 0.5
v 0.7996636 1.41711 -0.5
v 0.7996636 1.41711 0.5
v 0.9163863 0.930925 -0.5
v 0.9163863 0.930925 0.5
v 0.9147288 1.442356 -0.5
v 0.9147288 1.442356 0.5
v 1.012274 0.9519632 -0.5
v 1.012274 0.9519632 0.5
v 1.030696 1.463065 -0.5
v 1.030696 1.463065 0.5
v 1.108914 0.9692209 -0.5
v 1.108914 0.9692209 0.5
v 1.147388 1.479205 -0.5
v 1.147388 1.479205 0.5
v 1.206156 0.9826713 -0.5
v 1.206156 0.9826713 0.5
v 1.264623 1.490752 -0.5
v 1.264623 1.490752 0.5
v 1.303852 0.9922934 -0.5
v 1.303852 0.9922934 0.5
v 1.382221 1.497687 -0.5
v 1.382221 1.497687 0.5
v 1.40185 0.9980727 -0.5
v 1.40185 0.9980727 0.5
v 1.5 1.5 -0.5
v 1.5 1.5 0.5
v 1.5 1 -0.5
v 1.5 1 0.5

vt -1.5 0.5
vt -1 0.5
vt -1.5 -0.5
vt -1 -0.5
vt -0.5 -1.529158
vt -0.5 -1.411356
vt 0.5 -1.529158
vt 0.5 -1.411356
vt 0.5 -1.421176
vt 0.5 -1.519344
vt -0.5 -1.421176
vt -0.5 -1.519344
vt -0.5 -1.467993
vt -0.5 -1.350191
vt 0.5 -1.467993
vt 0.5 -1.350191
vt 0.5 -1.360008
vt 0.5 -1.458176
vt -0.5 -1.360008
vt -0.5 -1.458176
vt -0.5 -1.404652
vt -0.5 -1.28685
vt 0.5 -1.404652
vt 0.5 -1.28685
vt 0.5 -1.296666
vt 0.5 -1.394835
vt -0.5 -1.296666
vt -0.5 -1.394835
vt -0.5 -1.339238
vt -0.5 -1.221435
vt 0.5 -1.339238
vt 0.5 -1.221435
vt 0.5 -1.23125
vt 0.5 -1.329418
vt -0.5 -1.23125
vt -0.5 -1.329418
vt -0.5 -1.27185
vt -0.5 -1.154048
vt 0.5 -1.27185
vt 0.5 -1.154048
vt 0.5 -1.163861
vt 0.5 -1.26203
vt -0.5 -1.163861
vt -0.5 -1.26203
vt -0.5 -1.202582
vt -0.5 -1.08478
vt 0.5 -1.202582
vt 0.5 -1.08478
vt 0.5 -1.094602
vt 0.5 -1.19277
vt -0.5 -1.094602
vt -0.5 -1.19277
vt -0.5 -1.131563
vt -0.5 -1.013761
vt 0.5 -1.131563
vt 0.5 -1.013761
vt 0.5 -1.023578
vt 0.5 -1.121747
vt -0.5 -1.023578
vt -0.5 -1.121747
vt -0.5 -1.058882
vt -0.5 -0.94108
vt 0.5 -1.058882
vt 0.5 -0.94108
vt 0.5 -0.9508961
vt 0.5 -1.049064
vt -0.5 -0.9508961
vt -0.5 -1.049064
vt -0.5 -0.9846662
vt -0.5 -0.866864
vt 0.5 -0.9846662
vt 0.5 -0.866864
vt 0.5 -0.8766807
vt 0.5 -0.9748492
vt -0.5 -0.8766807
vt -0.5 -0.9748492
vt -0.5 -0.9090214
vt -0.5 -0.7912191
vt 0.5 -0.9090214
vt 0.5 -0.7912191
vt 0.5 -0.8010319
vt 0.5 -0.8992005
vt -0.5 -0.8010319
vt -0.5 -0.8992005
vt -0.5 -0.8320571
vt -0.5 -0.7142549
vt 0.5 -0.8320571
vt 0.5 -0.7142549
vt 0.5 -0.7240751
vt 0.5 -0.8222435
vt -0.5 -0.7240751
vt -0.5 -0.8222435
vt -0.5 -0.7539081
vt -0.5 -0.6361061
vt 0.5 -0.7539081
vt 0.5 -0.6361061
vt 0.5 -0.6459235
vt 0.5 -0.7440919
vt -0.5 -0.6459235
vt -0.5 -0.7440919
vt -0.5 -0.6746916
vt -0.5 -0.5568894
vt 0.5 -0.6746916
vt 0.5 -0.5568894
vt 0.5 -0.5667037
vt 0.5 -0.6648721
vt -0.5 -0.5667037
vt -0.5 -0.6648721
vt -0.5 -0.594516
vt -0.5 -0.4767138
vt 0.5 -0.594516
vt 0.5 -0.4767138
vt 0.5 -0.4865314
vt 0.5 -0.5847
vt -0.5 -0.4865314
vt -0.5 -0.5847
vt -0.5 -0.513517
vt -0.5 -0.3957148
vt 0.5 -0.513517
vt 0.5 -0.3957148
vt 0.5 -0.4055339
vt 0.5 -0.5037023
vt -0.5 -0.4055339
vt -0.5 -0.5037023
vt -0.5 -0.4318226
vt -0.5 -0.3140204
vt 0.5 -0.4318226
vt 0.5 -0.3140204
vt 0.5 -0.3238362
vt 0.5 -0.4220047
vt -0.5 -0.3238362
vt -0.5 -0.4220047
vt -0.5 -0.349548
vt -0.5 -0.2317457
vt 0.5 -0.349548
vt 0.5 -0.2317457
vt 0.5 -0.2415627
vt 0.5 -0.3397312
vt -0.5 -0.2415627
vt -0.5 -0.3397312
vt -0.5 -0.2668266
vt -0.5 -0.1490246
vt 0.5 -0.2668266
vt 0.5 -0.1490246
vt 0.5 -0.1588419
vt 0.5 -0.2570103
vt -0.5 -0.1588419
vt -0.5 -0.2570103
vt -0.5 -0.1837858
vt -0.5 -0.0659835
vt 0.5 -0.1837858
vt 0.5 -0.0659835
vt 0.5 -0.07579925
vt 0.5 -0.1739679
vt -0.5 -0.07579925
vt -0.5 -0.1739679
vt -0.5 -0.1005507
vt -0.5 0.01725142
vt 0.5 -0.1005507
vt 0.5 0.01725142
vt 0.5 0.007434727
vt 0.5 -0.09073367
vt -0.5 0.007434727
vt -0.5 -0.09073367
vt 0.0172515 -0.5
vt -0.1005506 -0.5
vt 0.0172515 0.5
vt -0.1005506 0.5
vt 0.09073359 -0.5
vt -0.007434811 -0.5
vt 0.09073359 0.5
vt -0.007434811 0.5
vt -0.06598271 -0.5
vt -0.1837849 -0.5
vt -0.06598271 0.5
vt -0.1837849 0.5
vt 0.1739678 -0.5
vt 0.07579916 -0.5
vt 0.1739678 0.5
vt 0.07579916 0.5
vt -0.1490259 -0.5
vt -0.266828 -0.5
vt -0.1490259 0.5
vt -0.266828 0.5
vt 0.2570102 -0.5
vt 0.1588418 -0.5
vt 0.2570102 0.5
vt 0.1588418 0.5
vt -0.2317468 -0.5
vt -0.3495489 -0.5
vt -0.2317468 0.5
vt -0.3495489 0.5
vt 0.3397313 -0.5
vt 0.2415629 -0.5
vt 0.3397313 0.5
vt 0.2415629 0.5
vt -0.3140177 -0.5
vt -0.4318199 -0.5
vt -0.3140177 0.5
vt -0.4318199 0.5
vt 0.4220043 -0.5
vt 0.3238358 -0.5
vt 0.4220043 0.5
vt 0.3238358 0.5
vt -0.3957169 -0.5
vt -0.5135189 -0.5
vt -0.3957169 0.5
vt -0.5135189 0.5
vt 0.5037025 -0.5
vt 0.4055342 -0.5
vt 0.5037025 0.5
vt 0.4055342 0.5
vt -0.476714 -0.5
vt -0.594516 -0.5
vt -0.476714 0.5
vt -0.594516 0.5
vt 0.5847 -0.5
vt 0.4865315 -0.5
vt 0.5847 0.5
vt 0.4865315 0.5
vt -0.5568864 -0.5
vt -0.6746887 -0.5
vt -0.5568864 0.5
vt -0.6746887 0.5
vt 0.664871 -0.5
vt 0.5667024 -0.5
vt 0.664871 0.5
vt 0.5667024 0.5
vt -0.6361073 -0.5
vt -0.7539095 -0.5
vt -0.6361073 0.5
vt -0.7539095 0.5
vt 0.7440917 -0.5
vt 0.6459234 -0.5
vt 0.7440917 0.5
vt 0.6459234 0.5
vt -0.7142549 -0.5
vt -0.832057 -0.5
vt -0.7142549 0.5
vt -0.832057 0.5
vt 0.8222432 -0.5
vt 0.7240747 -0.5
vt 0.8222432 0.5
vt 0.7240747 0.5
vt -0.7912171 -0.5
vt -0.9090193 -0.5
vt -0.7912171 0.5
vt -0.9090193 0.5
vt 0.8992006 -0.5
vt 0.8010322 -0.5
vt 0.8992006 0.5
vt 0.8010322 0.5
vt -0.8668637 -0.5
vt -0.9846659 -0.5
vt -0.8668637 0.5
vt -0.9846659 0.5
vt 0.9748491 -0.5
vt 0.8766806 -0.5
vt 0.9748491 0.5
vt 0.8766806 0.5
vt -0.9410806 -0.5
vt -1.058882 -0.5
vt -0.9410806 0.5
vt -1.058882 0.5
vt 1.049066 -0.5
vt 0.9508979 -0.5
vt 1.049066 0.5
vt 0.9508979 0.5
vt -1.013761 -0.5
vt -1.131563 -0.5
vt -1.013761 0.5
vt -1.131563 0.5
vt 1.121747 -0.5
vt 1.023578 -0.5
vt 1.121747 0.5
vt 1.023578 0.5
vt -1.084782 -0.5
vt -1.202584 -0.5
vt -1.084782 0.5
vt -1.202584 0.5
vt 1.192768 -0.5
vt 1.0946 -0.5
vt 1.192768 0.5
vt 1.0946 0.5
vt -1.154048 -0.5
vt -1.27185 -0.5
vt -1.154048 0.5
vt -1.27185 0.5
vt 1.26203 -0.5
vt 1.163861 -0.5
vt 1.26203 0.5
vt 1.163861 0.5
vt -1.221433 -0.5
vt -1.339235 -0.5
vt -1.221433 0.5
vt -1.339235 0.5
vt 1.32942 -0.5
vt 1.231252 -0.5
vt 1.32942 0.5
vt 1.231252 0.5
vt -1.28685 -0.5
vt -1.404652 -0.5
vt -1.28685 0.5
vt -1.404652 0.5
vt 1.394835 -0.5
vt 1.296666 -0.5
vt 1.394835 0.5
vt 1.296666 0.5
vt -1.350191 -0.5
vt -1.467993 -0.5
vt -1.350191 0.5
vt -1.467993 0.5
vt 1.458176 -0.5
vt 1.360008 -0.5
vt 1.458176 0.5
vt 1.360008 0.5
vt -1.411359 -0.5
vt -1.529161 -0.5
vt -1.411359 0.5
vt -1.529161 0.5
vt 1.519344 -0.5
vt 1.421175 -0.5
vt 1.519344 0.5
vt 1.421175 0.5
vt -0.5 1
vt -0.5 1.5
vt 0.5 1
vt 0.5 1.5
vt -1.5 -1.5
vt -1.497687 -1.382221
vt -1 -1.5
vt -0.9980726 -1.40185
vt 1.497687 -1.382221
vt 1.5 -1.5
vt 0.9980726 -1.40185
vt 1 -1.5
vt -1.490752 -1.264623
vt -0.9922934 -1.303852
vt 1.490752 -1.264623
vt 0.9922934 -1.303852
vt -1.479206 -1.147388
vt -0.9826713 -1.206156
vt 1.479206 -1.147388
vt 0.9826713 -1.206156
vt -1.463065 -1.030696
vt -0.9692211 -1.108914
vt 1.463065 -1.030696
vt 0.9692211 -1.108914
vt -1.442356 -0.9147289
vt -0.9519634 -1.012274
vt 1.442356 -0.9147289
vt 0.9519634 -1.012274
vt -1.41711 -0.7996638
vt -0.9309249 -0.9163865
vt 1.41711 -0.7996638
vt 0.9309249 -0.9163865
vt -1.387366 -0.6856786
vt -0.9061379 -0.8213988
vt 1.387366 -0.6856786
vt 0.9061379 -0.8213988
vt -1.35317 -0.5729489
vt -0.8776417 -0.7274575
vt 1.35317 -0.5729489
vt 0.8776417 -0.7274575
vt -1.314574 -0.4616488
vt -0.8454785 -0.6347073
vt 1.314574 -0.4616488
vt 0.8454785 -0.6347073
vt -1.271638 -0.3519496
vt -0.8096991 -0.5432913
vt 1.271638 -0.3519496
vt 0.8096991 -0.5432913
vt -1.22443 -0.2440206
vt -0.7703581 -0.4533506
vt 1.22443 -0.2440206
vt 0.7703581 -0.4533506
vt -1.17302 -0.1380284
vt -0.7275167 -0.3650237
vt 1.17302 -0.1380284
vt 0.7275167 -0.3650237
vt -1.117488 -0.03413635
vt -0.6812402 -0.278447
vt 1.117488 -0.03413635
vt 0.6812402 -0.278447
vt -1.05792 0.06749564
vt -0.6316005 -0.1937535
vt 1.05792 0.06749564
vt 0.6316005 -0.1937535
vt -0.9944091 0.1667108
vt -0.5786742 -0.1110744
vt 0.9944091 0.1667108
vt 0.5786742 -0.1110744
vt -0.9270511 0.2633558
vt -0.5225426 -0.03053683
vt 0.9270511 0.2633558
vt 0.5225426 -0.03053683
vt -0.8559508 0.357282
vt -0.4632925 0.04773492
vt 0.8559508 0.357282
vt 0.4632925 0.04773492
vt -0.7812181 0.4483442
vt -0.401015 0.1236201
vt 0.7812181 0.4483442
vt 0.401015 0.1236201
vt -0.7029675 0.5364023
vt -0.3358064 0.197002
vt 0.7029675 0.5364023
vt 0.3358064 0.197002
vt -0.6213204 0.6213203
vt -0.2677671 0.267767
vt 0.6213204 0.6213203
vt 0.2677671 0.267767
vt -0.5364023 0.7029675
vt -0.1970021 0.3358063
vt 0.5364023 0.7029675
vt 0.1970021 0.3358063
vt -0.4483442 0.7812179
vt -0.1236202 0.401015
vt 0.4483442 0.7812179
vt 0.1236202 0.401015
vt -0.357282 0.8559509
vt -0.04773498 0.4632924
vt 0.357282 0.8559509
vt 0.04773498 0.4632924
vt -0.2633561 0.9270511
vt 0.03053665 0.5225425
vt 0.2633561 0.9270511
vt -0.03053665 0.5225425
vt -0.1667109 0.9944089
vt 0.1110743 0.5786741
vt 0.1667109 0.9944089
vt -0.1110743 0.5786741
vt -0.06749594 1.05792
vt 0.1937534 0.6316004
vt 0.06749594 1.05792
vt -0.1937534 0.6316004
vt 0.03413594 1.117488
vt 0.2784467 0.6812401
vt -0.03413594 1.117488
vt -0.2784467 0.6812401
vt 0.1380283 1.17302
vt 0.3650236 0.7275165
vt -0.1380283 1.17302
vt -0.3650236 0.7275165
vt 0.2440206 1.22443
vt 0.4533505 0.7703579
vt -0.2440206 1.22443
vt -0.4533505 0.7703579
vt 0.3519496 1.271638
vt 0.5432913 0.8096989
vt -0.3519496 1.271638
vt -0.5432913 0.8096989
vt 0.4616487 1.314574
vt 0.6347073 0.8454784
vt -0.4616487 1.314574
vt -0.6347073 0.8454784
vt 0.5729489 1.35317
vt 0.7274575 0.8776415
vt -0.5729489 1.35317
vt -0.7274575 0.8776415
vt 0.6856784 1.387366
vt 0.8213986 0.906138
vt -0.6856784 1.387366
vt -0.8213986 0.906138
vt 0.7996636 1.41711
vt 0.9163863 0.930925
vt -0.7996636 1.41711
vt -0.9163863 0.930925
vt 0.9147288 1.442356
vt 1.012274 0.9519632
vt -0.9147288 1.442356
vt -1.012274 0.9519632
vt 1.030696 1.463065
vt 1.108914 0.9692209
vt -1.030696 1.463065
vt -1.108914 0.9692209
vt 1.147388 1.479205
vt 1.206156 0.9826713
vt -1.147388 1.479205
vt -1.206156 0.9826713
vt 1.264623 1.490752
vt 1.303852 0.9922934
vt -1.264623 1.490752
vt -1.303852 0.9922934
vt 1.382221 1.497687
vt 1.40185 0.9980727
vt -1.382221 1.497687
vt -1.40185 0.9980727
vt 1.5 1.5
vt 1.5 1
vt -1.5 1.5
vt -1.5 1

vn 0 -1 0
vn -0.9998073 0.01963172 0
vn -0.9992291 0.03925889 0
vn 0.9992291 -0.03925964 0
vn 0.9998072 -0.01963335 0
vn -0.9969173 0.07845905 0
vn 0.9969174 -0.0784587 0
vn -0.9930685 0.1175377 0
vn 0.9930686 -0.1175362 0
vn -0.9876881 0.1564363 0
vn 0.9876884 -0.1564338 0
vn -0.9807853 0.1950901 0
vn 0.9807851 -0.1950913 0
vn -0.9723703 0.2334441 0
vn 0.9723695 -0.2334472 0
vn -0.9624555 0.2714398 0
vn 0.9624556 -0.2714391 0
vn -0.9510567 0.3090165 0
vn 0.951057 -0.3090155 0
vn -0.9381905 0.3461192 0
vn 0.9381911 -0.3461176 0
vn -0.9238794 0.3826839 0
vn 0.9238794 -0.3826836 0
vn -0.908144 0.418658 0
vn 0.9081433 -0.4186594 0
vn -0.891006 0.4539915 0
vn 0.8910065 -0.4539906 0
vn -0.8724952 0.4886226 0
vn 0.8724955 -0.4886223 0
vn -0.852641 0.5224971 0
vn 0.8526402 -0.5224984 0
vn -0.83147 0.5555697 0
vn 0.8314697 -0.5555701 0
vn -0.8090166 0.5877857 0
vn 0.809017 -0.5877852 0
vn -0.7853171 0.6190938 0
vn 0.7853169 -0.619094 0
vn -0.7604057 0.6494483 0
vn 0.760406 -0.649448 0
vn -0.7343221 0.6788012 0
vn 0.7343227 -0.6788005 0
vn -0.7071068 0.7071068 0
vn 0.7071068 -0.7071068 0
vn -0.6788009 0.7343224 0
vn 0.6788005 -0.7343227 0
vn -0.6494486 0.7604054 0
vn 0.649448 -0.760406 0
vn -0.6190949 0.7853162 0
vn 0.6190944 -0.7853166 0
vn -0.5877851 0.8090171 0
vn 0.5877853 -0.8090169 0
vn -0.5555695 0.8314701 0
vn 0.5555701 -0.8314697 0
vn -0.5224983 0.8526403 0
vn 0.522499 -0.8526399 0
vn -0.4886216 0.8724958 0
vn 0.4886216 -0.8724958 0
vn -0.4539909 0.8910064 0
vn 0.4539897 -0.8910069 0
vn -0.4186586 0.9081437 0
vn 0.4186592 -0.9081435 0
vn -0.382683 0.9238797 0
vn 0.3826835 -0.9238795 0
vn -0.3461182 0.9381909 0
vn 0.3461177 -0.9381911 0
vn -0.3090167 0.9510567 0
vn 0.3090167 -0.9510566 0
vn -0.2714401 0.9624554 0
vn 0.2714405 -0.9624552 0
vn -0.233445 0.97237 0
vn 0.2334459 -0.9723698 0
vn -0.1950909 0.9807852 0
vn 0.1950899 -0.9807854 0
vn -0.1564352 0.9876882 0
vn 0.1564351 -0.9876882 0
vn -0.1175367 0.9930686 0
vn 0.1175373 -0.9930685 0
vn -0.07845905 0.9969173 0
vn 0.07845861 -0.9969174 0
vn -0.0392599 0.9992291 0
vn 0.05887087 -0.9982656 0
vn -0.01963375 0.9998072 0
vn 0.01963274 -0.9998072 0
vn 1 0 0
vn 0 0 1
vn 0 0 -1

usemtl ProBuilderDefault
f 3/3/1 4/4/1 2/2/1 1/1/1
f 1/7/2 6/8/3 5/6/3 3/5/2
f 8/11/4 2/12/5 4/10/5 7/9/4
f 6/15/3 10/16/6 9/14/6 5/13/3
f 12/19/7 8/20/4 7/18/4 11/17/7
f 10/23/6 14/24/8 13/22/8 9/21/6
f 16/27/9 12/28/7 11/26/7 15/25/9
f 14/31/8 18/32/10 17/30/10 13/29/8
f 20/35/11 16/36/9 15/34/9 19/33/11
f 18/39/10 22/40/12 21/38/12 17/37/10
f 24/43/13 20/44/11 19/42/11 23/41/13
f 22/47/12 26/48/14 25/46/14 21/45/12
f 28/51/15 24/52/13 23/50/13 27/49/15
f 26/55/14 30/56/16 29/54/16 25/53/14
f 32/59/17 28/60/15 27/58/15 31/57/17
f 30/63/16 34/64/18 33/62/18 29/61/16
f 36/67/19 32/68/17 31/66/17 35/65/19
f 34/71/18 38/72/20 37/70/20 33/69/18
f 40/75/21 36/76/19 35/74/19 39/73/21
f 38/79/20 42/80/22 41/78/22 37/77/20
f 44/83/23 40/84/21 39/82/21 43/81/23
f 42/87/22 46/88/24 45/86/24 41/85/22
f 48/91/25 44/92/23 43/90/23 47/89/25
f 46/95/24 50/96/26 49/94/26 45/93/24
f 52/99/27 48/100/25 47/98/25 51/97/27
f 50/103/26 54/104/28 53/102/28 49/101/26
f 56/107/29 52/108/27 51/106/27 55/105/29
f 54/111/28 58/112/30 57/110/30 53/109/28
f 60/115/31 56/116/29 55/114/29 59/113/31
f 58/119/30 62/120/32 61/118/32 57/117/30
f 64/123/33 60/124/31 59/122/31 63/121/33
f 62/127/32 66/128/34 65/126/34 61/125/32
f 68/131/35 64/132/33 63/130/33 67/129/35
f 66/135/34 70/136/36 69/134/36 65/133/34
f 72/139/37 68/140/35 67/138/35 71/137/37
f 70/143/36 74/144/38 73/142/38 69/141/36
f 76/147/39 72/148/37 71/146/37 75/145/39
f 74/151/38 78/152/40 77/150/40 73/149/38
f 80/155/41 76/156/39 75/154/39 79/153/41
f 78/159/40 82/160/42 81/158/42 77/157/40
f 84/163/43 80/164/41 79/162/41 83/161/43
f 82/167/42 86/168/44 85/166/44 81/165/42
f 88/171/45 84/172/43 83/170/43 87/169/45
f 86/175/44 90/176/46 89/174/46 85/173/44
f 92/179/47 88/180/45 87/178/45 91/177/47
f 90/183/46 94/184/48 93/182/48 89/181/46
f 96/187/49 92/188/47 91/186/47 95/185/49
f 94/191/48 98/192/50 97/190/50 93/189/48
f 100/195/51 96/196/49 95/194/49 99/193/51
f 98/199/50 102/200/52 101/198/52 97/197/50
f 104/203/53 100/204/51 99/202/51 103/201/53
f 102/207/52 106/208/54 105/206/54 101/205/52
f 108/211/55 104/212/53 103/210/53 107/209/55
f 106/215/54 110/216/56 109/214/56 105/213/54
f 112/219/57 108/220/55 107/218/55 111/217/57
f 110/223/56 114/224/58 113/222/58 109/221/56
f 116/227/59 112/228/57 111/226/57 115/225/59
f 114/231/58 118/232/60 117/230/60 113/229/58
f 120/235/61 116/236/59 115/234/59 119/233/61
f 118/239/60 122/240/62 121/238/62 117/237/60
f 124/243/63 120/244/61 119/242/61 123/241/63
f 122/247/62 126/248/64 125/246/64 121/245/62
f 128/251/65 124/252/63 123/250/63 127/249/65
f 126/255/64 130/256/66 129/254/66 125/253/64
f 132/259/67 128/260/65 127/258/65 131/257/67
f 130/263/66 134/264/68 133/262/68 129/261/66
f 136/267/69 132/268/67 131/266/67 135/265/69
f 134/271/68 138/272/70 137/270/70 133/269/68
f 140/275/71 136/276/69 135/274/69 139/273/71
f 138/279/70 142/280/72 141/278/72 137/277/70
f 144/283/73 140/284/71 139/282/71 143/281/73
f 142/287/72 146/288/74 145/286/74 141/285/72
f 148/291/75 144/292/73 143/290/73 147/289/75
f 146/295/74 150/296/76 149/294/76 145/293/74
f 152/299/77 148/300/75 147/298/75 151/297/77
f 150/303/76 154/304/78 153/302/78 149/301/76
f 156/307/79 152/308/77 151/306/77 155/305/79
f 154/311/78 158/312/80 157/310/80 153/309/78
f 160/315/81 156/316/79 155/314/79 159/313/81
f 158/319/80 162/320/82 161/318/82 157/317/80
f 164/323/83 160/324/83 159/322/83 163/321/83
f 163/327/84 161/328/84 162/326/84 164/325/84
f 2/331/85 8/332/85 6/330/85 1/329/85
f 7/335/86 4/336/86 3/334/86 5/333/86
f 8/332/85 12/338/85 10/337/85 6/330/85
f 11/340/86 7/335/86 5/333/86 9/339/86
f 12/338/85 16/342/85 14/341/85 10/337/85
f 15/344/86 11/340/86 9/339/86 13/343/86
f 16/342/85 20/346/85 18/345/85 14/341/85
f 19/348/86 15/344/86 13/343/86 17/347/86
f 20/346/85 24/350/85 22/349/85 18/345/85
f 23/352/86 19/348/86 17/347/86 21/351/86
f 24/350/85 28/354/85 26/353/85 22/349/85
f 27/356/86 23/352/86 21/351/86 25/355/86
f 28/354/85 32/358/85 30/357/85 26/353/85
f 31/360/86 27/356/86 25/355/86 29/359/86
f 32/358/85 36/362/85 34/361/85 30/357/85
f 35/364/86 31/360/86 29/359/86 33/363/86
f 36/362/85 40/366/85 38/365/85 34/361/85
f 39/368/86 35/364/86 33/363/86 37/367/86
f 40/366/85 44/370/85 42/369/85 38/365/85
f 43/372/86 39/368/86 37/367/86 41/371/86
f 44/370/85 48/374/85 46/373/85 42/369/85
f 47/376/86 43/372/86 41/371/86 45/375/86
f 48/374/85 52/378/85 50/377/85 46/373/85
f 51/380/86 47/376/86 45/375/86 49/379/86
f 52/378/85 56/382/85 54/381/85 50/377/85
f 55/384/86 51/380/86 49/379/86 53/383/86
f 56/382/85 60/386/85 58/385/85 54/381/85
f 59/388/86 55/384/86 53/383/86 57/387/86
f 60/386/85 64/390/85 62/389/85 58/385/85
f 63/392/86 59/388/86 57/387/86 61/391/86
f 64/390/85 68/394/85 66/393/85 62/389/85
f 67/396/86 63/392/86 61/391/86 65/395/86
f 68/394/85 72/398/85 70/397/85 66/393/85
f 71/400/86 67/396/86 65/395/86 69/399/86
f 72/398/85 76/402/85 74/401/85 70/397/85
f 75/404/86 71/400/86 69/399/86 73/403/86
f 76/402/85 80/406/85 78/405/85 74/401/85
f 79/408/86 75/404/86 73/403/86 77/407/86
f 80/406/85 84/410/85 82/409/85 78/405/85
f 83/412/86 79/408/86 77/407/86 81/411/86
f 84/410/85 88/414/85 86/413/85 82/409/85
f 87/416/86 83/412/86 81/411/86 85/415/86
f 88/414/85 92/418/85 90/417/85 86/413/85
f 91/420/86 87/416/86 85/415/86 89/419/86
f 92/418/85 96/422/85 94/421/85 90/417/85
f 95/424/86 91/420/86 89/419/86 93/423/86
f 96/422/85 100/426/85 98/425/85 94/421/85
f 99/428/86 95/424/86 93/423/86 97/427/86
f 100/426/85 104/430/85 102/429/85 98/425/85
f 103/432/86 99/428/86 97/427/86 101/431/86
f 104/430/85 108/434/85 106/433/85 102/429/85
f 107/436/86 103/432/86 101/431/86 105/435/86
f 108/434/85 112/438/85 110/437/85 106/433/85
f 111/440/86 107/436/86 105/435/86 109/439/86
f 112/438/85 116/442/85 114/441/85 110/437/85
f 115/444/86 111/440/86 109/439/86 113/443/86
f 116/442/85 120/446/85 118/445/85 114/441/85
f 119/448/86 115/444/86 113/443/86 117/447/86
f 120/446/85 124/450/85 122/449/85 118/445/85
f 123/452/86 119/448/86 117/447/86 121/451/86
f 124/450/85 128/454/85 126/453/85 122/449/85
f 127/456/86 123/452/86 121/451/86 125/455/86
f 128/454/85 132/458/85 130/457/85 126/453/85
f 131/460/86 127/456/86 125/455/86 129/459/86
f 132/458/85 136/462/85 134/461/85 130/457/85
f 135/464/86 131/460/86 129/459/86 133/463/86
f 136/462/85 140/466/85 138/465/85 134/461/85
f 139/468/86 135/464/86 133/463/86 137/467/86
f 140/466/85 144/470/85 142/469/85 138/465/85
f 143/472/86 139/468/86 137/467/86 141/471/86
f 144/470/85 148/474/85 146/473/85 142/469/85
f 147/476/86 143/472/86 141/471/86 145/475/86
f 148/474/85 152/478/85 150/477/85 146/473/85
f 151/480/86 147/476/86 145/475/86 149/479/86
f 152/478/85 156/482/85 154/481/85 150/477/85
f 155/484/86 151/480/86 149/479/86 153/483/86
f 156/482/85 160/486/85 158/485/85 154/481/85
f 159/488/86 155/484/86 153/483/86 157/487/86
f 160/486/85 164/490/85 162/489/85 158/485/85
f 163/492/86 159/488/86 157/487/86 161/491/86

